# xmcd
#
# Track frame offsets:
#	150
#	17705
#	31485
#	48815
#	69210
#	85935
#	104092
#	116347
#	128367
#	145047
#	158687
#	175342
#	191162
#	207817
#	225577
#	241577
#	257900
#	270992
#	284177
#
# Disc length: 4093 seconds
#
# Revision: 1
# Processed by: cddbd v1.5.2PL0 Copyright (c) Steve Scherf et al.
# Submitted via: EZCDAudioConverter 3.1.5.1
#
DISCID=fe0ffb13
DTITLE=Γιώργος Νταλάρας - 50 χρόνια ρεμπέτικο τραγούδι
DYEAR=1988
DGENRE=rempetika
TTITLE0=Γλυκοχαράζουν Τα Βουνά
TTITLE1=Τι Σου Λέει Η Μάνα Σου
TTITLE2=Του Βοτανικού Ο Μάγκας
TTITLE3=Θα Κάνω Ντου Βρε Πονηρή
TTITLE4=Όλοι Οι Ρεμπέτες
TTITLE5=Το Γράμμα
TTITLE6=Για Την Απονιά Σου
TTITLE7=Το Χρήμα Δεν Το Λογαριάζω
TTITLE8=Ένας Αλήτης Πέθανε
TTITLE9=Άλλα Μου Λεν' Τα Μάτια Σου
TTITLE10=Βαρβάκειο
TTITLE11=Ήρθ' Ο Χειμώνας (Η Παλτουδιά)
TTITLE12=Ο Μανώλης
TTITLE13=Γιοβάν Τσάους
TTITLE14=Όμορφη Πειραιώτισσα
TTITLE15=Παραπονιάρικό Μου
TTITLE16=Πέφτεις Σε Λάθη
TTITLE17=Ο Κάβουρας
TTITLE18=Ο Πίκινος
EXTD=
EXTT0=
EXTT1=
EXTT2=
EXTT3=
EXTT4=
EXTT5=
EXTT6=
EXTT7=
EXTT8=
EXTT9=
EXTT10=
EXTT11=
EXTT12=
EXTT13=
EXTT14=
EXTT15=
EXTT16=
EXTT17=
EXTT18=
PLAYORDER=
